<svg xmlns="http://www.w3.org/2000/svg" version="1.1" xmlns:xlink="http://www.w3.org/1999/xlink" xmlns:svgjs="http://svgjs.dev/svgjs" width="1000" height="726" viewBox="0 0 1000 726"><g transform="matrix(1,0,0,1,-0.41416905562596185,-1.0272127659573016)"><svg viewBox="0 0 194 141" data-background-color="#ffffff" preserveAspectRatio="xMidYMid meet" height="726" width="1000" xmlns="http://www.w3.org/2000/svg" xmlns:xlink="http://www.w3.org/1999/xlink"><g id="tight-bounds" transform="matrix(1,0,0,1,0.08034879679144069,0.19949999999997203)"><svg viewBox="0 0 193.83930240641712 140.60052000000002" height="140.60052000000002" width="193.83930240641712"><g><svg viewBox="0 0 193.83930240641712 140.60052000000002" height="140.60052000000002" width="193.83930240641712"><g><svg viewBox="0 0 193.83930240641712 140.60052000000002" height="140.60052000000002" width="193.83930240641712"><g><path d="M0 140.601v-140.601h193.839v140.601z" fill="#233565" stroke="transparent" stroke-width="0" rx="0%" data-fill-palette-color="tertiary"></path><path d="M3.283 137.317v-134.034h187.273v134.034z" fill="#ffffff" stroke="transparent" stroke-width="0" rx="0%" data-fill-palette-color="quaternary"></path><path d="M9.85 130.751v-120.901h174.139v120.901z" fill="#233565" stroke="transparent" stroke-width="0" data-fill-palette-color="tertiary"></path></g><g transform="matrix(1,0,0,1,19.69974,19.69974)" id="textblocktransform"><svg viewBox="0 0 154.43982240641714 101.20104000000002" height="101.20104000000002" width="154.43982240641714" id="textblock"><g><svg viewBox="0 0 154.43982240641714 101.20104000000002" height="101.20104000000002" width="154.43982240641714"><g transform="matrix(1,0,0,1,0,0)"><svg width="154.43982240641714" viewBox="0.6600000262260437 -36.18000030517578 55.72999954223633 36.52000045776367" height="101.20104000000002" data-palette-color="#ffffff"><path d="M26.25-12.99L26.25-12.99Q26.25-9.64 25.09-7.14 23.93-4.64 21.91-2.98 19.9-1.32 17.2-0.49 14.5 0.34 11.4 0.34L11.4 0.34Q10.21 0.34 8.78 0.02 7.35-0.29 5.88-0.77 4.42-1.25 3.06-1.79 1.71-2.34 0.66-2.83L0.66-2.83 1.73-12.89Q3.81-11.65 6.34-11 8.86-10.35 11.3-10.35L11.3-10.35Q11.77-10.35 12.43-10.39 13.09-10.42 13.68-10.61 14.28-10.79 14.7-11.16 15.11-11.52 15.11-12.21L15.11-12.21Q15.11-12.67 14.82-13 14.53-13.33 14.06-13.54 13.6-13.75 13.01-13.85 12.43-13.96 11.87-14.01 11.3-14.06 10.82-14.06 10.33-14.06 10.03-14.06L10.03-14.06Q7.93-14.06 6.21-14.79 4.49-15.53 3.26-16.83 2.03-18.14 1.34-19.93 0.66-21.73 0.66-23.83L0.66-23.83Q0.66-26.71 1.82-28.99 2.98-31.27 4.92-32.87 6.86-34.47 9.38-35.33 11.89-36.18 14.58-36.18L14.58-36.18Q15.77-36.18 17.04-36.1 18.31-36.01 19.57-35.79 20.83-35.57 22.02-35.23 23.22-34.89 24.29-34.38L24.29-34.38 23.36-24.46Q21.7-25.02 19.89-25.4 18.07-25.78 16.33-25.78L16.33-25.78Q16.02-25.78 15.52-25.77 15.01-25.76 14.47-25.7 13.92-25.63 13.35-25.51 12.79-25.39 12.35-25.18 11.91-24.98 11.65-24.63 11.38-24.29 11.4-23.83L11.4-23.83Q11.43-23.29 11.8-22.96 12.18-22.63 12.78-22.45 13.38-22.27 14.1-22.19 14.82-22.12 15.53-22.11 16.24-22.09 16.85-22.11 17.46-22.12 17.85-22.07L17.85-22.07Q19.8-21.95 21.36-21.24 22.92-20.53 24.01-19.36 25.1-18.19 25.67-16.56 26.25-14.94 26.25-12.99ZM56.39-23.54L56.39-23.54Q56.39-21.63 56.06-20.08 55.73-18.53 55.03-17.24 54.32-15.94 53.2-14.84 52.07-13.75 50.49-12.74L50.49-12.74 56.3-2.39 45.31-0.24 41.55-10.64 38.52-10.55 38.08-0.39 27.59-0.39Q27.71-5.96 27.82-11.47 27.93-16.99 28.07-22.56L28.07-22.56Q28.12-25.37 28.17-28.13 28.22-30.88 28.37-33.69L28.37-33.69Q30.08-34.33 31.74-34.74 33.4-35.16 35.07-35.39 36.74-35.62 38.46-35.71 40.18-35.79 41.99-35.79L41.99-35.79Q44.77-35.79 47.37-35.02 49.97-34.25 51.98-32.71 53.98-31.18 55.19-28.88 56.39-26.59 56.39-23.54ZM45.46-22.75L45.46-22.75Q45.46-23.78 45.18-24.63 44.89-25.49 44.35-26.11 43.8-26.73 42.98-27.09 42.16-27.44 41.06-27.44L41.06-27.44Q40.57-27.44 40.11-27.38 39.65-27.32 39.21-27.2L39.21-27.2 38.82-18.12 39.4-18.12Q40.45-18.12 41.54-18.38 42.62-18.65 43.49-19.21 44.36-19.78 44.91-20.65 45.46-21.53 45.46-22.75Z" opacity="1" transform="matrix(1,0,0,1,0,0)" fill="#ffffff" class="wordmark-text-0" data-fill-palette-color="quaternary" id="text-0"></path></svg></g></svg></g></svg></g></svg></g><g></g></svg></g><defs></defs></svg><rect width="193.83930240641712" height="140.60052000000002" fill="none" stroke="none" visibility="hidden"></rect></g></svg></g></svg>